<mxfile host="app.diagrams.net" modified="2023-02-22T15:25:19.988Z" agent="5.0 (Windows NT 10.0; Win64; x64) AppleWebKit/537.36 (KHTML, like Gecko) Chrome/110.0.0.0 Safari/537.36" etag="cWBZD-9ezHnDXccAiqsj" version="20.8.22" type="github">
  <diagram id="R2lEEEUBdFMjLlhIrx00" name="Page-1">
    <mxGraphModel dx="596" dy="380" grid="1" gridSize="10" guides="1" tooltips="1" connect="1" arrows="1" fold="1" page="1" pageScale="1" pageWidth="3300" pageHeight="4681" math="0" shadow="0" extFonts="Permanent Marker^https://fonts.googleapis.com/css?family=Permanent+Marker">
      <root>
        <mxCell id="0" />
        <mxCell id="1" parent="0" />
        <mxCell id="X3GpeF969z6_8VNaGLwK-1" value="Product" style="swimlane;fontStyle=0;childLayout=stackLayout;horizontal=1;startSize=26;horizontalStack=0;resizeParent=1;resizeParentMax=0;resizeLast=0;collapsible=1;marginBottom=0;align=center;fontSize=14;" vertex="1" parent="1">
          <mxGeometry x="120" y="200" width="250" height="180" as="geometry" />
        </mxCell>
        <mxCell id="X3GpeF969z6_8VNaGLwK-2" value="+ Id: PK INT" style="text;strokeColor=none;fillColor=none;spacingLeft=4;spacingRight=4;overflow=hidden;rotatable=0;points=[[0,0.5],[1,0.5]];portConstraint=eastwest;fontSize=12;" vertex="1" parent="X3GpeF969z6_8VNaGLwK-1">
          <mxGeometry y="26" width="250" height="30" as="geometry" />
        </mxCell>
        <mxCell id="X3GpeF969z6_8VNaGLwK-3" value="+ name: VARCHAR(60)" style="text;strokeColor=none;fillColor=none;spacingLeft=4;spacingRight=4;overflow=hidden;rotatable=0;points=[[0,0.5],[1,0.5]];portConstraint=eastwest;fontSize=12;" vertex="1" parent="X3GpeF969z6_8VNaGLwK-1">
          <mxGeometry y="56" width="250" height="30" as="geometry" />
        </mxCell>
        <mxCell id="X3GpeF969z6_8VNaGLwK-4" value="+ description: VARCHAR(255)&#xa;&#xa;+ price: INT&#xa;&#xa;+ category_id: FK  Category INT" style="text;strokeColor=none;fillColor=none;spacingLeft=4;spacingRight=4;overflow=hidden;rotatable=0;points=[[0,0.5],[1,0.5]];portConstraint=eastwest;fontSize=12;" vertex="1" parent="X3GpeF969z6_8VNaGLwK-1">
          <mxGeometry y="86" width="250" height="94" as="geometry" />
        </mxCell>
        <mxCell id="X3GpeF969z6_8VNaGLwK-5" value="Category" style="swimlane;fontStyle=0;childLayout=stackLayout;horizontal=1;startSize=26;horizontalStack=0;resizeParent=1;resizeParentMax=0;resizeLast=0;collapsible=1;marginBottom=0;align=center;fontSize=14;" vertex="1" parent="1">
          <mxGeometry x="500" y="160" width="250" height="86" as="geometry" />
        </mxCell>
        <mxCell id="X3GpeF969z6_8VNaGLwK-6" value="+ Id: PK INT" style="text;strokeColor=none;fillColor=none;spacingLeft=4;spacingRight=4;overflow=hidden;rotatable=0;points=[[0,0.5],[1,0.5]];portConstraint=eastwest;fontSize=12;" vertex="1" parent="X3GpeF969z6_8VNaGLwK-5">
          <mxGeometry y="26" width="250" height="30" as="geometry" />
        </mxCell>
        <mxCell id="X3GpeF969z6_8VNaGLwK-7" value="+ name: VARCHAR(60)" style="text;strokeColor=none;fillColor=none;spacingLeft=4;spacingRight=4;overflow=hidden;rotatable=0;points=[[0,0.5],[1,0.5]];portConstraint=eastwest;fontSize=12;" vertex="1" parent="X3GpeF969z6_8VNaGLwK-5">
          <mxGeometry y="56" width="250" height="30" as="geometry" />
        </mxCell>
        <mxCell id="X3GpeF969z6_8VNaGLwK-9" value="" style="edgeStyle=entityRelationEdgeStyle;fontSize=12;html=1;endArrow=ERoneToMany;rounded=0;exitX=0;exitY=0.5;exitDx=0;exitDy=0;entryX=1;entryY=0.5;entryDx=0;entryDy=0;" edge="1" parent="1" source="X3GpeF969z6_8VNaGLwK-6" target="X3GpeF969z6_8VNaGLwK-4">
          <mxGeometry width="100" height="100" relative="1" as="geometry">
            <mxPoint x="360" y="400" as="sourcePoint" />
            <mxPoint x="460" y="300" as="targetPoint" />
          </mxGeometry>
        </mxCell>
        <mxCell id="X3GpeF969z6_8VNaGLwK-14" value="User" style="swimlane;fontStyle=0;childLayout=stackLayout;horizontal=1;startSize=26;horizontalStack=0;resizeParent=1;resizeParentMax=0;resizeLast=0;collapsible=1;marginBottom=0;align=center;fontSize=14;" vertex="1" parent="1">
          <mxGeometry x="810" y="330" width="250" height="180" as="geometry" />
        </mxCell>
        <mxCell id="X3GpeF969z6_8VNaGLwK-15" value="+ Id: PK INT " style="text;strokeColor=none;fillColor=none;spacingLeft=4;spacingRight=4;overflow=hidden;rotatable=0;points=[[0,0.5],[1,0.5]];portConstraint=eastwest;fontSize=12;" vertex="1" parent="X3GpeF969z6_8VNaGLwK-14">
          <mxGeometry y="26" width="250" height="30" as="geometry" />
        </mxCell>
        <mxCell id="X3GpeF969z6_8VNaGLwK-16" value="+ name: VARCHAR(60)" style="text;strokeColor=none;fillColor=none;spacingLeft=4;spacingRight=4;overflow=hidden;rotatable=0;points=[[0,0.5],[1,0.5]];portConstraint=eastwest;fontSize=12;" vertex="1" parent="X3GpeF969z6_8VNaGLwK-14">
          <mxGeometry y="56" width="250" height="30" as="geometry" />
        </mxCell>
        <mxCell id="X3GpeF969z6_8VNaGLwK-17" value="+ surname: VARCHAR(60)&#xa;&#xa;+ username: VARCHAR(60) UNIQUE&#xa;&#xa;+ email: VARCHAR(120) UNIQUE" style="text;strokeColor=none;fillColor=none;spacingLeft=4;spacingRight=4;overflow=hidden;rotatable=0;points=[[0,0.5],[1,0.5]];portConstraint=eastwest;fontSize=12;" vertex="1" parent="X3GpeF969z6_8VNaGLwK-14">
          <mxGeometry y="86" width="250" height="94" as="geometry" />
        </mxCell>
        <mxCell id="X3GpeF969z6_8VNaGLwK-18" value="Customer" style="swimlane;fontStyle=0;childLayout=stackLayout;horizontal=1;startSize=26;horizontalStack=0;resizeParent=1;resizeParentMax=0;resizeLast=0;collapsible=1;marginBottom=0;align=center;fontSize=14;" vertex="1" parent="1">
          <mxGeometry x="1200" y="170" width="250" height="110" as="geometry" />
        </mxCell>
        <mxCell id="X3GpeF969z6_8VNaGLwK-19" value="+ Id: PK INT&#xa; &#xa;+ cashback: INT&#xa;&#xa;+ user_id: FK INT" style="text;strokeColor=none;fillColor=none;spacingLeft=4;spacingRight=4;overflow=hidden;rotatable=0;points=[[0,0.5],[1,0.5]];portConstraint=eastwest;fontSize=12;" vertex="1" parent="X3GpeF969z6_8VNaGLwK-18">
          <mxGeometry y="26" width="250" height="84" as="geometry" />
        </mxCell>
        <mxCell id="X3GpeF969z6_8VNaGLwK-22" value="" style="edgeStyle=entityRelationEdgeStyle;fontSize=12;html=1;endArrow=ERmandOne;startArrow=ERmandOne;rounded=0;entryX=-0.012;entryY=0.845;entryDx=0;entryDy=0;entryPerimeter=0;" edge="1" parent="1" target="X3GpeF969z6_8VNaGLwK-19">
          <mxGeometry width="100" height="100" relative="1" as="geometry">
            <mxPoint x="1060" y="371" as="sourcePoint" />
            <mxPoint x="1150" y="230" as="targetPoint" />
          </mxGeometry>
        </mxCell>
        <mxCell id="X3GpeF969z6_8VNaGLwK-23" value="Admin" style="swimlane;fontStyle=0;childLayout=stackLayout;horizontal=1;startSize=26;horizontalStack=0;resizeParent=1;resizeParentMax=0;resizeLast=0;collapsible=1;marginBottom=0;align=center;fontSize=14;" vertex="1" parent="1">
          <mxGeometry x="1200" y="400" width="250" height="110" as="geometry" />
        </mxCell>
        <mxCell id="X3GpeF969z6_8VNaGLwK-24" value="+ Id: PK INT&#xa; &#xa;+ role_id: FK INT&#xa;&#xa;+ user_id: FK INT" style="text;strokeColor=none;fillColor=none;spacingLeft=4;spacingRight=4;overflow=hidden;rotatable=0;points=[[0,0.5],[1,0.5]];portConstraint=eastwest;fontSize=12;" vertex="1" parent="X3GpeF969z6_8VNaGLwK-23">
          <mxGeometry y="26" width="250" height="84" as="geometry" />
        </mxCell>
        <mxCell id="X3GpeF969z6_8VNaGLwK-25" value="" style="edgeStyle=entityRelationEdgeStyle;fontSize=12;html=1;endArrow=ERmandOne;startArrow=ERmandOne;rounded=0;entryX=-0.009;entryY=0.856;entryDx=0;entryDy=0;entryPerimeter=0;exitX=1;exitY=0.5;exitDx=0;exitDy=0;" edge="1" parent="1" source="X3GpeF969z6_8VNaGLwK-15" target="X3GpeF969z6_8VNaGLwK-24">
          <mxGeometry width="100" height="100" relative="1" as="geometry">
            <mxPoint x="1080" y="400" as="sourcePoint" />
            <mxPoint x="1190" y="510" as="targetPoint" />
          </mxGeometry>
        </mxCell>
        <mxCell id="X3GpeF969z6_8VNaGLwK-26" value="Role" style="swimlane;fontStyle=0;childLayout=stackLayout;horizontal=1;startSize=26;horizontalStack=0;resizeParent=1;resizeParentMax=0;resizeLast=0;collapsible=1;marginBottom=0;align=center;fontSize=14;" vertex="1" parent="1">
          <mxGeometry x="1630" y="330" width="250" height="60" as="geometry" />
        </mxCell>
        <mxCell id="X3GpeF969z6_8VNaGLwK-27" value="+ Id: PK INT" style="text;strokeColor=none;fillColor=none;spacingLeft=4;spacingRight=4;overflow=hidden;rotatable=0;points=[[0,0.5],[1,0.5]];portConstraint=eastwest;fontSize=12;" vertex="1" parent="X3GpeF969z6_8VNaGLwK-26">
          <mxGeometry y="26" width="250" height="34" as="geometry" />
        </mxCell>
        <mxCell id="X3GpeF969z6_8VNaGLwK-28" value="SUPER_ADMIN&lt;br&gt;MODERATOR&lt;br&gt;MANAGER" style="text;html=1;align=center;verticalAlign=middle;resizable=0;points=[];autosize=1;strokeColor=none;fillColor=none;" vertex="1" parent="1">
          <mxGeometry x="1700" y="246" width="110" height="60" as="geometry" />
        </mxCell>
        <mxCell id="X3GpeF969z6_8VNaGLwK-29" value="" style="edgeStyle=entityRelationEdgeStyle;fontSize=12;html=1;endArrow=ERoneToMany;rounded=0;entryX=1;entryY=0.5;entryDx=0;entryDy=0;exitX=0;exitY=0.5;exitDx=0;exitDy=0;" edge="1" parent="1" source="X3GpeF969z6_8VNaGLwK-27" target="X3GpeF969z6_8VNaGLwK-24">
          <mxGeometry width="100" height="100" relative="1" as="geometry">
            <mxPoint x="1300" y="360" as="sourcePoint" />
            <mxPoint x="1400" y="260" as="targetPoint" />
          </mxGeometry>
        </mxCell>
        <mxCell id="X3GpeF969z6_8VNaGLwK-30" value="PERMISSIONS" style="swimlane;fontStyle=0;childLayout=stackLayout;horizontal=1;startSize=26;horizontalStack=0;resizeParent=1;resizeParentMax=0;resizeLast=0;collapsible=1;marginBottom=0;align=center;fontSize=14;" vertex="1" parent="1">
          <mxGeometry x="2060" y="310" width="250" height="120" as="geometry" />
        </mxCell>
        <mxCell id="X3GpeF969z6_8VNaGLwK-31" value="+ Id: PK INT&#xa;&#xa;+ name: VARCHAR(255)&#xa;&#xa;+ role_id: FK Roles" style="text;strokeColor=none;fillColor=none;spacingLeft=4;spacingRight=4;overflow=hidden;rotatable=0;points=[[0,0.5],[1,0.5]];portConstraint=eastwest;fontSize=12;" vertex="1" parent="X3GpeF969z6_8VNaGLwK-30">
          <mxGeometry y="26" width="250" height="94" as="geometry" />
        </mxCell>
        <mxCell id="X3GpeF969z6_8VNaGLwK-32" value="GET_USER&lt;br&gt;CHANGE_PASSWORD&lt;br&gt;DELETE_PRODUCT" style="text;html=1;align=center;verticalAlign=middle;resizable=0;points=[];autosize=1;strokeColor=none;fillColor=none;" vertex="1" parent="1">
          <mxGeometry x="2110" y="230" width="150" height="60" as="geometry" />
        </mxCell>
        <mxCell id="X3GpeF969z6_8VNaGLwK-33" value="" style="edgeStyle=entityRelationEdgeStyle;fontSize=12;html=1;endArrow=ERoneToMany;rounded=0;exitX=1;exitY=0.5;exitDx=0;exitDy=0;entryX=0;entryY=0.5;entryDx=0;entryDy=0;" edge="1" parent="1" source="X3GpeF969z6_8VNaGLwK-27" target="X3GpeF969z6_8VNaGLwK-31">
          <mxGeometry width="100" height="100" relative="1" as="geometry">
            <mxPoint x="2010" y="410" as="sourcePoint" />
            <mxPoint x="2110" y="310" as="targetPoint" />
          </mxGeometry>
        </mxCell>
      </root>
    </mxGraphModel>
  </diagram>
</mxfile>
